<mxfile host="app.diagrams.net" modified="2023-09-03T11:29:53.764Z" agent="Mozilla/5.0 (Windows NT 10.0; Win64; x64) AppleWebKit/537.36 (KHTML, like Gecko) Chrome/116.0.0.0 Safari/537.36 Edg/116.0.1938.62" etag="W-qnfiSiuTLYBdkzJuCC" version="21.7.2" type="device">
  <diagram name="Page-1" id="OuR1appY_9UEMDruavtF">
    <mxGraphModel dx="1440" dy="807" grid="1" gridSize="10" guides="1" tooltips="1" connect="1" arrows="1" fold="1" page="1" pageScale="1" pageWidth="2023" pageHeight="1864" math="0" shadow="0">
      <root>
        <mxCell id="0" />
        <mxCell id="1" parent="0" />
        <mxCell id="u2WJPulMgQ4X46mnsQgj-31" style="edgeStyle=orthogonalEdgeStyle;rounded=0;orthogonalLoop=1;jettySize=auto;html=1;exitX=1;exitY=0.5;exitDx=0;exitDy=0;entryX=-0.003;entryY=0.137;entryDx=0;entryDy=0;entryPerimeter=0;startArrow=ERone;startFill=0;endArrow=ERmany;endFill=0;endSize=22;startSize=22;strokeWidth=3;" edge="1" parent="1" source="u2WJPulMgQ4X46mnsQgj-14" target="u2WJPulMgQ4X46mnsQgj-15">
          <mxGeometry relative="1" as="geometry" />
        </mxCell>
        <mxCell id="u2WJPulMgQ4X46mnsQgj-14" value="&lt;font style=&quot;font-size: 30px;&quot;&gt;User&lt;/font&gt;" style="rounded=1;arcSize=10;whiteSpace=wrap;html=1;align=center;fontFamily=Times New Roman;fontSize=35;strokeWidth=3;" vertex="1" parent="1">
          <mxGeometry x="491" y="837" width="200" height="120" as="geometry" />
        </mxCell>
        <mxCell id="u2WJPulMgQ4X46mnsQgj-15" value="&lt;font style=&quot;font-size: 30px;&quot;&gt;PigCare&lt;/font&gt;" style="swimlane;childLayout=stackLayout;horizontal=1;startSize=50;horizontalStack=0;rounded=1;fontSize=14;fontStyle=0;strokeWidth=3;resizeParent=0;resizeLast=1;shadow=0;dashed=0;align=center;arcSize=4;whiteSpace=wrap;html=1;fillColor=#cccccc;strokeColor=#36393d;fontFamily=Times New Roman;" vertex="1" parent="1">
          <mxGeometry x="871" y="837" width="250" height="190" as="geometry" />
        </mxCell>
        <mxCell id="u2WJPulMgQ4X46mnsQgj-16" value="&lt;font style=&quot;font-size: 25px;&quot;&gt;+Symptom Analysis&lt;br&gt;+Nutrition&lt;br&gt;+Facts&lt;br&gt;+Ideal Months&amp;nbsp;&lt;/font&gt;" style="align=left;strokeColor=none;fillColor=none;spacingLeft=4;fontSize=12;verticalAlign=top;resizable=0;rotatable=0;part=1;html=1;fontFamily=Times New Roman;" vertex="1" parent="u2WJPulMgQ4X46mnsQgj-15">
          <mxGeometry y="50" width="250" height="140" as="geometry" />
        </mxCell>
        <mxCell id="u2WJPulMgQ4X46mnsQgj-32" value="&lt;font style=&quot;font-size: 30px;&quot;&gt;Database&lt;/font&gt;" style="swimlane;childLayout=stackLayout;horizontal=1;startSize=50;horizontalStack=0;rounded=1;fontSize=14;fontStyle=0;strokeWidth=3;resizeParent=0;resizeLast=1;shadow=0;dashed=0;align=center;arcSize=4;whiteSpace=wrap;html=1;fillColor=#cccccc;strokeColor=#36393d;fontFamily=Times New Roman;" vertex="1" parent="1">
          <mxGeometry x="1281" y="837" width="250" height="190" as="geometry" />
        </mxCell>
        <mxCell id="u2WJPulMgQ4X46mnsQgj-33" value="&lt;font style=&quot;font-size: 24px;&quot;&gt;+Symptom_Information&lt;br&gt;+Nutrition_Information&lt;br&gt;+Facts_Information&lt;br&gt;&lt;br&gt;&lt;/font&gt;" style="align=left;strokeColor=none;fillColor=none;spacingLeft=4;fontSize=12;verticalAlign=top;resizable=0;rotatable=0;part=1;html=1;fontFamily=Times New Roman;" vertex="1" parent="u2WJPulMgQ4X46mnsQgj-32">
          <mxGeometry y="50" width="250" height="140" as="geometry" />
        </mxCell>
        <mxCell id="u2WJPulMgQ4X46mnsQgj-34" style="edgeStyle=orthogonalEdgeStyle;rounded=0;orthogonalLoop=1;jettySize=auto;html=1;exitX=0;exitY=0.132;exitDx=0;exitDy=0;startArrow=ERone;startFill=0;endArrow=ERmany;endFill=0;endSize=22;startSize=22;strokeWidth=3;exitPerimeter=0;entryX=0.998;entryY=0.134;entryDx=0;entryDy=0;entryPerimeter=0;" edge="1" parent="1" source="u2WJPulMgQ4X46mnsQgj-32" target="u2WJPulMgQ4X46mnsQgj-15">
          <mxGeometry relative="1" as="geometry">
            <mxPoint x="1121" y="809" as="sourcePoint" />
            <mxPoint x="1300" y="775" as="targetPoint" />
          </mxGeometry>
        </mxCell>
      </root>
    </mxGraphModel>
  </diagram>
</mxfile>
